<?xml version="1.0" encoding="UTF-8"?>
<svg version="1.1" xmlns="http://www.w3.org/2000/svg" width="500" height="500">
<path d="M0 0 C2.65079213 9.67399794 5.09302077 19.37044072 7.29248047 29.15649414 C7.7586767 31.22601731 8.23269057 33.29365822 8.70703125 35.36132812 C9.00827861 36.69260295 9.30907754 38.02397934 9.609375 39.35546875 C9.87717773 40.53778076 10.14498047 41.72009277 10.42089844 42.93823242 C11 46 11 46 11 50 C6.28858861 48.67114038 2.41074104 46.62285157 -1.75390625 44.12109375 C-4.17037631 42.91496 -6.3417956 42.41578241 -9 42 C-9.1546875 42.804375 -9.1546875 42.804375 -9.3125 43.625 C-10.18092697 46.62502044 -11.55620296 49.2379535 -13 52 C-13.66 52 -14.32 52 -15 52 C-15.09410156 52.53109375 -15.18820312 53.0621875 -15.28515625 53.609375 C-18.01746356 62.74692732 -24.91689114 71.553913 -29.99902344 79.60327148 C-34.01403045 85.97560892 -37.8749082 92.43627041 -41.73364258 98.90405273 C-44.92079102 104.23463239 -48.1962903 109.48778785 -51.5625 114.70703125 C-53.3672027 117.58572822 -54.98774982 120.54469198 -56.60546875 123.53125 C-59.03588891 127.83384255 -61.69802177 131.99723011 -64.328125 136.1796875 C-66.09596002 138.9349778 -66.09596002 138.9349778 -67 142 C-67.66 142 -68.32 142 -69 142 C-69.17523193 142.86214111 -69.17523193 142.86214111 -69.35400391 143.74169922 C-70.05062772 146.17698654 -71.02046761 147.97143548 -72.3359375 150.1328125 C-72.81764404 150.92985596 -73.29935059 151.72689941 -73.7956543 152.5480957 C-74.57743042 153.82366333 -74.57743042 153.82366333 -75.375 155.125 C-76.18094604 156.45374146 -76.18094604 156.45374146 -77.00317383 157.80932617 C-78.66323051 160.54297868 -80.33066122 163.27200774 -82 166 C-82.97534344 167.59760557 -83.95060799 169.1952593 -84.92578125 170.79296875 C-86.30160612 173.0455235 -87.67831876 175.29751646 -89.05737305 177.5480957 C-91.96058839 182.28729918 -94.83443732 187.04296113 -97.6875 191.8125 C-98.41131277 193.01831655 -99.13526868 194.2240472 -99.859375 195.4296875 C-100.95433671 197.25294943 -102.04615422 199.0778404 -103.13085938 200.90722656 C-104.22663803 202.7545849 -105.3312254 204.59641361 -106.4375 206.4375 C-107.07558594 207.50871094 -107.71367187 208.57992187 -108.37109375 209.68359375 C-108.90863281 210.44800781 -109.44617188 211.21242188 -110 212 C-110.66 212 -111.32 212 -112 212 C-112 212.66 -112 213.32 -112 214 C-118.02863121 216.74028691 -122.50288825 217.62427794 -129 216 C-130.35234348 215.37279242 -131.69232487 214.71568706 -133 214 C-133 213.34 -133 212.68 -133 212 C-133.96873047 211.69255859 -133.96873047 211.69255859 -134.95703125 211.37890625 C-139.25738966 209.43022009 -142.87549361 206.70193211 -146.6875 203.9375 C-148.21143867 202.84133359 -149.73614185 201.74622902 -151.26171875 200.65234375 C-151.93162842 200.16757568 -152.60153809 199.68280762 -153.29174805 199.18334961 C-154.99657027 197.94267284 -154.99657027 197.94267284 -157 197 C-157 196.34 -157 195.68 -157 195 C-158.98 194.34 -160.96 193.68 -163 193 C-163 192.34 -163 191.68 -163 191 C-164.051875 190.62875 -164.051875 190.62875 -165.125 190.25 C-168.39514548 188.82819762 -171.141122 187.12753712 -174 185 C-174 184.34 -174 183.68 -174 183 C-174.721875 182.74605469 -175.44375 182.49210938 -176.1875 182.23046875 C-180.09200619 180.52224729 -183.15367843 177.97236635 -186.5 175.36328125 C-188.88404352 173.77241728 -188.88404352 173.77241728 -191.4375 174.16796875 C-194.29678395 175.0963643 -197.14803914 176.04934638 -200 177 C-200.33 194.49 -200.66 211.98 -201 230 C-199.02 230.66 -197.04 231.32 -195 232 C-193.15586197 232.96435509 -191.33924621 233.98281725 -189.55078125 235.046875 C-188.53693359 235.645 -187.52308594 236.243125 -186.47851562 236.859375 C-184.91133789 237.79523438 -184.91133789 237.79523438 -183.3125 238.75 C-175.61605598 243.31658904 -167.882504 247.76190561 -160 252 C-156.33333333 254 -152.66666667 256 -149 258 C-149 258.66 -149 259.32 -149 260 C-148.34 259.67 -147.68 259.34 -147 259 C-149.78540894 254.71998138 -152.62895027 250.49117964 -155.625 246.35546875 C-156.0782666 245.72914551 -156.5315332 245.10282227 -156.99853516 244.45751953 C-157.91078051 243.2016046 -158.82708288 241.94862581 -159.74755859 240.69873047 C-163 236.21899965 -163 236.21899965 -163 234 C-163.66 234 -164.32 234 -165 234 C-166.30078823 232.25963506 -167.51488895 230.45418109 -168.6875 228.625 C-171.91924325 223.63854423 -175.2627162 218.77152096 -178.75 213.9609375 C-180 212 -180 212 -180 210 C-180.66 210 -181.32 210 -182 210 C-185 205.61538462 -185 205.61538462 -185 203 C-180.36883987 204.27356904 -176.78939475 206.24846937 -172.83203125 208.87890625 C-170.89004926 210.16189886 -170.89004926 210.16189886 -168 211 C-168 211.66 -168 212.32 -168 213 C-167.401875 213.144375 -166.80375 213.28875 -166.1875 213.4375 C-164.43849596 213.8872439 -162.71322977 214.42892341 -161 215 C-161 215.66 -161 216.32 -161 217 C-160.47535156 217.09023438 -159.95070313 217.18046875 -159.41015625 217.2734375 C-156.14920564 218.25647934 -153.35946594 219.91584297 -150.4375 221.625 C-149.81834717 221.98255371 -149.19919434 222.34010742 -148.5612793 222.70849609 C-144.75186448 224.92522159 -141.01596482 227.23429072 -137.3125 229.625 C-126.78599067 236.79175878 -126.78599067 236.79175878 -115 241 C-105.84485539 238.024578 -100.47121278 222.97782382 -96 215 C-95.34 215 -94.68 215 -94 215 C-93.9071875 214.47148437 -93.814375 213.94296875 -93.71875 213.3984375 C-92.7528308 210.17520712 -91.18092015 207.53992899 -89.5 204.625 C-89.14760254 204.01358154 -88.79520508 203.40216309 -88.43212891 202.7722168 C-85.51218943 197.75882049 -82.38807439 192.8924657 -79.21459961 188.03710938 C-77.0065925 184.63680698 -74.96256102 181.20567837 -73.0625 177.625 C-70.2495372 172.32544026 -67.10008207 167.28124846 -63.90063477 162.21044922 C-60.88100994 157.42117056 -57.91480494 152.60381772 -55 147.75 C-54.62641357 147.1302832 -54.25282715 146.51056641 -53.86791992 145.87207031 C-52.12767532 142.96562433 -50.45460986 140.06074158 -49 137 C-48.34 137 -47.68 137 -47 137 C-46.63068359 135.72962891 -46.63068359 135.72962891 -46.25390625 134.43359375 C-44.88254774 130.67837839 -43.03769843 127.43823507 -40.9375 124.0625 C-40.12608417 122.73581033 -39.31489272 121.40898342 -38.50390625 120.08203125 C-38.08898926 119.40736816 -37.67407227 118.73270508 -37.24658203 118.03759766 C-35.64587163 115.42116032 -34.07647392 112.78671041 -32.50756836 110.15112305 C-27.88858754 102.39772713 -23.08601569 94.77534325 -18.1875 87.1953125 C-15.01549313 82.25956044 -12.00645314 77.29542092 -9.19140625 72.1484375 C-7.9368965 69.8862068 -6.64626502 67.65396081 -5.3125 65.4375 C-4.91675781 64.77621094 -4.52101563 64.11492187 -4.11328125 63.43359375 C-3.74589844 62.96050781 -3.37851562 62.48742187 -3 62 C-2.34 62 -1.68 62 -1 62 C-0.90649278 84.53130542 -0.83598944 107.06257877 -0.79275131 129.59403896 C-0.77214005 140.05616689 -0.74404686 150.51817414 -0.69824219 160.98022461 C-0.65833051 170.10064036 -0.63255675 179.22096869 -0.62364602 188.34146935 C-0.61843862 193.16920264 -0.60622921 197.99668588 -0.57707977 202.82433891 C-0.54984226 207.37237858 -0.54157181 211.92006622 -0.54756927 216.4681797 C-0.54647276 218.13341564 -0.53856859 219.79866387 -0.5231781 221.46382904 C-0.41977063 233.23355835 -1.46605892 242.26286985 -10 251 C-15.26315789 255 -15.26315789 255 -19 255 C-19 255.66 -19 256.32 -19 257 C-24.60335352 260.06312078 -30.21099514 263.1178671 -35.83203125 266.1484375 C-46.63180176 271.97268224 -57.38416936 277.84570511 -68 284 C-72.65786508 286.68219394 -77.32543833 289.3470201 -82 292 C-83.38445312 292.78697266 -83.38445312 292.78697266 -84.796875 293.58984375 C-87.51032466 295.10311375 -90.24834468 296.55742059 -93 298 C-93.56299805 298.3088916 -94.12599609 298.6177832 -94.70605469 298.93603516 C-104.39434443 304.21227463 -113.2329422 307.43608068 -124.41796875 304.328125 C-126.72686654 303.36923849 -128.82850176 302.2392894 -131 301 C-131.97195312 300.49082031 -132.94390625 299.98164063 -133.9453125 299.45703125 C-140.83048339 295.8319473 -147.58528801 291.98430168 -154.3203125 288.08984375 C-158.16769615 285.88478914 -162.06623299 283.77565597 -165.96191406 281.6574707 C-171.4279984 278.67537117 -176.86962934 275.64920174 -182.3125 272.625 C-183.19983826 272.13209976 -183.19983826 272.13209976 -184.10510254 271.62924194 C-192.77221321 266.81341565 -201.4111884 261.95416088 -210 257 C-212.33234501 255.66492943 -214.66612634 254.33239802 -217 253 C-217 252.34 -217 251.68 -217 251 C-217.86625 250.62875 -217.86625 250.62875 -218.75 250.25 C-223.97430319 247.34760934 -225.62055328 243.97671381 -227.37343025 238.48278999 C-228.35692761 234.58567017 -228.426668 230.84564948 -228.40405273 226.84350586 C-228.41091599 225.97722061 -228.41777924 225.11093536 -228.42485046 224.21839905 C-228.44300122 221.38370913 -228.43929879 218.54957872 -228.43359375 215.71484375 C-228.43816025 213.72904787 -228.44346721 211.74325358 -228.44947815 209.75746155 C-228.45838551 205.607692 -228.45601212 201.45811516 -228.44604492 197.30834961 C-228.4345415 192.00343926 -228.45480006 186.69919322 -228.48396206 181.39437008 C-228.50234615 177.29785475 -228.50202747 173.20149811 -228.49632454 169.10495186 C-228.49617169 167.14942046 -228.50218614 165.19387806 -228.51461601 163.23838615 C-228.52957109 160.50087116 -228.51881713 157.76457759 -228.50170898 155.02709961 C-228.51621094 153.82910233 -228.51621094 153.82910233 -228.53100586 152.60690308 C-228.4483374 146.25794015 -226.71286945 141.10225118 -222.49024105 136.27354336 C-221 135 -221 135 -219 135 C-219 134.34 -219 133.68 -219 133 C-212.17158108 128.71550185 -205.99813822 127.93165663 -198 129 C-195.69 129.99 -193.38 130.98 -191 132 C-183.74 124.74 -176.48 117.48 -169 110 C-169.99 107.36 -170.98 104.72 -172 102 C-173.10361977 93.24678047 -171.74899446 86.38825938 -166.375 79.3125 C-162.06275144 74.61975892 -157.31887734 72.38028803 -151 71.65625 C-144.83006089 71.47115183 -140.45127877 72.16079231 -135 75 C-133.1259029 75.96072431 -133.1259029 75.96072431 -131 76 C-128.60567911 74.35792097 -128.60567911 74.35792097 -126.375 72.0625 C-122.18010292 68 -122.18010292 68 -120 68 C-120 67.34 -120 66.68 -120 66 C-117.8828125 64.0546875 -117.8828125 64.0546875 -115.125 61.875 C-114.22007812 61.15054688 -113.31515625 60.42609375 -112.3828125 59.6796875 C-110 58 -110 58 -108 58 C-108 57.34 -108 56.68 -108 56 C-106.46875 54.7109375 -106.46875 54.7109375 -104.5 53.375 C-103.8503125 52.92898437 -103.200625 52.48296875 -102.53125 52.0234375 C-102.0259375 51.68570313 -101.520625 51.34796875 -101 51 C-101.33 50.113125 -101.66 49.22625 -102 48.3125 C-104.17719618 40.46188019 -104.17492441 32.51652771 -100.5 25.1875 C-99.69247693 23.77657774 -98.86856189 22.37418899 -98 21 C-97.34 21 -96.68 21 -96 21 C-96 20.34 -96 19.68 -96 19 C-90.22356819 14.49156542 -84.40265066 12.54261219 -77.046875 12.7421875 C-73.43331401 13.19733068 -70.28932249 14.48676957 -67 16 C-66.13375 16.37125 -65.2675 16.7425 -64.375 17.125 C-59.33348584 21.10514276 -55.87229143 26.62632513 -55 33 C-54.31361677 41.09140231 -55.30712712 47.80579886 -60.375 54.3125 C-62.81765261 56.81331101 -64.86984842 58.47722356 -68 60 C-68.66 60 -69.32 60 -70 60 C-70 69.9 -70 79.8 -70 90 C-68.288125 87.133125 -66.57625 84.26625 -64.8125 81.3125 C-59.78019384 72.90196045 -54.65750096 64.55129386 -49.4543457 56.24536133 C-46.5562987 51.59886416 -43.80386323 46.90683881 -41.17211914 42.10473633 C-39.43645221 38.9880555 -37.56966563 35.96810567 -35.6875 32.9375 C-35.14899414 32.06834961 -35.14899414 32.06834961 -34.59960938 31.18164062 C-33.73492242 29.78661233 -32.86774459 28.39312842 -32 27 C-32.66 27 -33.32 27 -34 27 C-34 26.34 -34 25.68 -34 25 C-34.99 24.690625 -34.99 24.690625 -36 24.375 C-40.07180186 22.50875748 -43.68796998 20.02438473 -47 17 C-47 16.34 -47 15.68 -47 15 C-39.79067977 11.84939733 -32.38429904 9.47710809 -24.8659668 7.19482422 C-20.08731443 5.72771563 -15.5642889 4.03875389 -11 2 C-7.09398874 0.51571572 -4.15367315 -0.0909053 0 0 Z M-85 30 C-87.65782608 32.75274844 -88.81746468 35.1667583 -89 39 C-87.45641562 42.93614016 -86.55160136 44.63226576 -83 47 C-78.13418066 47.5493667 -76.1023556 47.73490373 -72 45 C-69.77847797 41.66771696 -69.2519961 39.85911608 -69.51171875 35.93359375 C-70.36860346 32.54033032 -72.25109739 31.01586192 -75 29 C-78.92992024 27.52627991 -81.35217852 27.98409866 -85 30 Z M-89 60 C-91.12993013 61.12622854 -91.12993013 61.12622854 -93.1875 62.8125 C-93.90292969 63.35519531 -94.61835938 63.89789063 -95.35546875 64.45703125 C-96.16951172 65.22080078 -96.16951172 65.22080078 -97 66 C-97 66.66 -97 67.32 -97 68 C-97.66 68 -98.32 68 -99 68 C-99 68.66 -99 69.32 -99 70 C-100.10214844 70.37705078 -100.10214844 70.37705078 -101.2265625 70.76171875 C-104.20553376 72.09176648 -106.0116159 73.58136303 -108.375 75.8125 C-111.16607749 78.3885196 -113.92076819 80.74015181 -117.0625 82.875 C-118.031875 83.57625 -119.00125 84.2775 -120 85 C-120 85.66 -120 86.32 -120 87 C-120.6496875 87.19335938 -121.299375 87.38671875 -121.96875 87.5859375 C-122.6390625 88.05257812 -123.309375 88.51921875 -124 89 C-124.5590458 92.07506551 -124.5590458 92.07506551 -124.5 95.625 C-124.81422606 102.4471969 -125.60847886 107.45940101 -130.421875 112.484375 C-132.68526652 114.46775932 -134.928198 115.96640696 -137.65196228 117.24073792 C-140.28226003 118.81317227 -140.28226003 118.81317227 -140.62818909 121.83946228 C-140.62915085 122.99321854 -140.63011261 124.14697479 -140.63110352 125.33569336 C-140.64363663 126.64392563 -140.65616974 127.9521579 -140.66908264 129.30003357 C-140.65681346 130.72998037 -140.6433933 132.1599177 -140.62890625 133.58984375 C-140.62973489 135.05571163 -140.63219409 136.52157942 -140.63621521 137.98744202 C-140.63907467 141.06019042 -140.62436107 144.13221051 -140.59692383 147.20483398 C-140.56286942 151.14060917 -140.56884704 155.0750794 -140.5875864 159.01091671 C-140.59816463 162.03848614 -140.58921089 165.06575285 -140.57420158 168.09329414 C-140.56902323 169.54413516 -140.56949741 170.99500785 -140.57574654 172.44584465 C-140.58120632 174.47557543 -140.55795668 176.50532197 -140.53344727 178.53491211 C-140.52724869 179.68946396 -140.52105011 180.84401581 -140.5146637 182.03355408 C-139.88810145 185.64496679 -138.86876047 186.78666109 -136 189 C-132.86649283 190.26784124 -132.86649283 190.26784124 -130 191 C-128.51442709 188.58706946 -127.03643408 186.1700253 -125.5625 183.75 C-124.93118164 182.72712891 -124.93118164 182.72712891 -124.28710938 181.68359375 C-123.88427734 181.01972656 -123.48144531 180.35585938 -123.06640625 179.671875 C-122.69459229 179.0644043 -122.32277832 178.45693359 -121.93969727 177.83105469 C-120.95116455 175.90484128 -120.44259935 174.11305496 -120 172 C-119.34 172 -118.68 172 -118 172 C-117.67128906 171.37996094 -117.34257812 170.75992188 -117.00390625 170.12109375 C-111.47822638 159.83344587 -105.48239065 149.8340781 -99.1875 140 C-94.12636027 132.990796 -94.12636027 132.990796 -92 125 C-91.34 125 -90.68 125 -90 125 C-85.31188656 118.16220886 -84.29199414 112.80828875 -84.4765625 104.61328125 C-84.48126556 103.55263962 -84.48596863 102.49199799 -84.49081421 101.3992157 C-84.51201946 98.03629472 -84.56855237 94.67499363 -84.625 91.3125 C-84.6415244 89.04363476 -84.65586799 86.77475252 -84.66796875 84.50585938 C-84.55964516 72.68817275 -84.55964516 72.68817275 -86 61 C-86.99 60.67 -87.98 60.34 -89 60 Z M-153 87 C-153 87.66 -153 88.32 -153 89 C-153.66 89 -154.32 89 -155 89 C-155 89.66 -155 90.32 -155 91 C-155.66 91 -156.32 91 -157 91 C-157.46788961 95.77247406 -157.68514232 98.95087582 -155 103.0625 C-150.89592369 105.71304929 -148.82698169 105.5449818 -144 105 C-143.01 104.34 -142.02 103.68 -141 103 C-141 102.34 -141 101.68 -141 101 C-140.34 101 -139.68 101 -139 101 C-137.97746353 96.60309316 -137.83174494 94.01127186 -140 90 C-141.68229502 87.75693997 -142.68587032 87.09919885 -145.375 86.25 C-148.15648185 85.98509697 -150.30562334 86.30716029 -153 87 Z M-161 122 C-161 122.66 -161 123.32 -161 124 C-161.66 124 -162.32 124 -163 124 C-163 124.66 -163 125.32 -163 126 C-163.66 126 -164.32 126 -165 126 C-165 126.66 -165 127.32 -165 128 C-165.66 128 -166.32 128 -167 128 C-167 128.66 -167 129.32 -167 130 C-167.66 130 -168.32 130 -169 130 C-169 130.66 -169 131.32 -169 132 C-169.66 132 -170.32 132 -171 132 C-171 132.66 -171 133.32 -171 134 C-171.66 134 -172.32 134 -173 134 C-173 134.66 -173 135.32 -173 136 C-173.556875 136.226875 -174.11375 136.45375 -174.6875 136.6875 C-178.26630855 138.71871566 -181.25396858 140.93187434 -182.6965332 144.9309082 C-183.82573933 150.75951698 -183.73630796 156.65871045 -181 162 C-174.4138405 168.78508398 -165.55838498 174.04813226 -157 178 C-156.01 178 -155.02 178 -154 178 C-154 158.53 -154 139.06 -154 119 C-157.52032428 119 -158.4385343 119.70351351 -161 122 Z M-213 148 C-214.14888518 151.94929279 -214.43129396 154.02958859 -212.75 157.8125 C-210.25367098 160.93291127 -208.60213649 161.92194527 -204.625 162.4375 C-200.9090036 162.28406927 -200.9090036 162.28406927 -198.125 159.9375 C-195.5446726 156.37057683 -194.84540744 154.4058879 -195 150 C-196.75990314 146.40475664 -196.75990314 146.40475664 -200 144 C-205.29051645 142.6055178 -209.43112626 143.78224012 -213 148 Z M-30 167 C-30.88097243 168.3556534 -31.71023158 169.74490894 -32.51953125 171.14453125 C-33.30227417 172.48753296 -33.30227417 172.48753296 -34.10083008 173.85766602 C-34.94810669 175.32030884 -34.94810669 175.32030884 -35.8125 176.8125 C-40.19421089 184.30777164 -44.65094385 191.7377347 -49.3125 199.0625 C-49.8079834 199.84133545 -50.3034668 200.6201709 -50.81396484 201.42260742 C-51.76723899 202.91981234 -52.72083801 204.41681047 -53.67480469 205.91357422 C-62.99989043 219.20440583 -62.99989043 219.20440583 -69 234 C-69.66 234 -70.32 234 -71 234 C-71.3403125 234.64324219 -71.680625 235.28648437 -72.03125 235.94921875 C-75.57175892 242.55000799 -79.36838912 248.91904714 -83.36328125 255.25 C-85.10088713 257.94690285 -85.10088713 257.94690285 -86 261 C-70.23531714 255.03420594 -55.20944049 244.98610529 -40.75878906 236.36206055 C-40.09331055 235.96672119 -39.42783203 235.57138184 -38.7421875 235.1640625 C-38.1632373 234.81811035 -37.58428711 234.4721582 -36.98779297 234.11572266 C-34.37186692 232.64743697 -31.68975935 231.32707456 -29 230 C-28.82951838 224.08185218 -28.6693393 218.16353682 -28.51782227 212.24487305 C-28.46516587 210.24056902 -28.40991963 208.23633098 -28.35180664 206.23217773 C-27.97296014 193.09114547 -28.08082157 180.11674322 -29 167 C-29.33 167 -29.66 167 -30 167 Z " fill="#202020" transform="translate(366,100)"/>
<path d="M0 0 C-0.99 1.485 -0.99 1.485 -2 3 C-3.99883869 3.34022786 -5.99890722 3.67329097 -8 4 C-9.85801239 5.43691955 -9.85801239 5.43691955 -11 7 C-11.99 6.34 -12.98 5.68 -14 5 C-14 4.34 -14 3.68 -14 3 C-12.42274653 2.29866401 -10.83788667 1.614417 -9.25 0.9375 C-7.92742187 0.36322266 -7.92742187 0.36322266 -6.578125 -0.22265625 C-3.84743691 -1.04600008 -2.63098653 -0.9773992 0 0 Z " fill="#4A4A4A" transform="translate(333,112)"/>
<path d="M0 0 C0.33 0.66 0.66 1.32 1 2 C1.66 2 2.32 2 3 2 C1.25 6.875 1.25 6.875 -1 8 C-1.99 7.67 -2.98 7.34 -4 7 C-3.6875 4.625 -3.6875 4.625 -3 2 C-2.01 1.34 -1.02 0.68 0 0 Z " fill="#292929" transform="translate(333,265)"/>
<path d="M0 0 C2 3 2 3 1.9375 4.875 C0.57701179 7.95877329 -1.49064095 9.79666035 -4 12 C-4.66 12 -5.32 12 -6 12 C-4.68139111 7.38486888 -2.78644563 3.90102388 0 0 Z " fill="#3F3F3F" transform="translate(330,216)"/>
<path d="M0 0 C0.66 0 1.32 0 2 0 C2.375 2.75 2.375 2.75 2 6 C-1 8.375 -1 8.375 -4 10 C-3.52651586 5.8333396 -2.95303159 3.07115285 0 0 Z " fill="#3E3E3E" transform="translate(363,162)"/>
<path d="M0 0 C0.66 0.33 1.32 0.66 2 1 C-3.08695652 6.51086957 -3.08695652 6.51086957 -7 7 C-7.9075 7.185625 -8.815 7.37125 -9.75 7.5625 C-10.4925 7.706875 -11.235 7.85125 -12 8 C-8.20182235 4.77730382 -4.42608146 2.25479622 0 0 Z " fill="#4C4C4C" transform="translate(331,332)"/>
<path d="M0 0 C3.77545388 1.09068668 6.47043472 1.9083091 9 5 C7.68 5 6.36 5 5 5 C4.34 5.66 3.68 6.32 3 7 C0 2.25 0 2.25 0 0 Z " fill="#5F5F5F" transform="translate(181,303)"/>
<path d="M0 0 C0.33 0 0.66 0 1 0 C1.33872513 1.41538717 1.67074624 2.83237963 2 4.25 C2.185625 5.03890625 2.37125 5.8278125 2.5625 6.640625 C3 9 3 9 3 13 C1.02 12.34 -0.96 11.68 -3 11 C-2.01 10.34 -1.02 9.68 0 9 C0.36362818 6.79274927 0.36362818 6.79274927 0.1875 4.375 C0.14689453 3.14910156 0.14689453 3.14910156 0.10546875 1.8984375 C0.07066406 1.27195313 0.03585937 0.64546875 0 0 Z " fill="#636363" transform="translate(374,137)"/>
<path d="M0 0 C0.33 0.66 0.66 1.32 1 2 C0.21654285 3.17219543 -0.57702836 4.33763668 -1.375 5.5 C-1.81585938 6.1496875 -2.25671875 6.799375 -2.7109375 7.46875 C-3.13632812 7.9740625 -3.56171875 8.479375 -4 9 C-4.66 9 -5.32 9 -6 9 C-4.68775452 5.06326356 -3.08089673 2.77280706 0 0 Z " fill="#323232" transform="translate(315,161)"/>
<path d="M0 0 C1 3 1 3 -0.1875 6.0625 C-1.99216457 8.9873012 -2.82880497 9.90648447 -6 11 C-4.54955729 6.89041233 -2.48889248 3.56741255 0 0 Z " fill="#515151" transform="translate(334,127)"/>
<path d="M0 0 C1.32 0.66 2.64 1.32 4 2 C-0.75 6.875 -0.75 6.875 -3 8 C-2.37240135 5.07120629 -1.41377341 2.63904371 0 0 Z " fill="#3E3E3E" transform="translate(250,177)"/>
<path d="M0 0 C0 0.99 0 1.98 0 3 C-0.99 3.33 -1.98 3.66 -3 4 C-5.6875 2.0625 -5.6875 2.0625 -8 0 C-4.71023192 -1.09658936 -3.28696233 -0.79953138 0 0 Z " fill="#2C2C2C" transform="translate(223,300)"/>
<path d="M0 0 C0.99 0.33 1.98 0.66 3 1 C3 1.66 3 2.32 3 3 C0.36 3.33 -2.28 3.66 -5 4 C-5.33 3.34 -5.66 2.68 -6 2 C-2.25 0.875 -2.25 0.875 0 2 C0 1.34 0 0.68 0 0 Z " fill="#3A3A3A" transform="translate(247,313)"/>
<path d="M0 0 C0.99 0.99 1.98 1.98 3 3 C2.67 3.99 2.34 4.98 2 6 C1.01 5.67 0.02 5.34 -1 5 C-1 4.34 -1 3.68 -1 3 C-1.66 2.67 -2.32 2.34 -3 2 C-2.01 1.34 -1.02 0.68 0 0 Z " fill="#323232" transform="translate(236,175)"/>
<path d="M0 0 C0.33 0.99 0.66 1.98 1 3 C-0.32 4.32 -1.64 5.64 -3 7 C-3.99 6.67 -4.98 6.34 -6 6 C-4.02 4.02 -2.04 2.04 0 0 Z " fill="#252525" transform="translate(187,220)"/>
<path d="M0 0 C0.33 0.99 0.66 1.98 1 3 C-0.65 4.32 -2.3 5.64 -4 7 C-6.475 6.01 -6.475 6.01 -9 5 C-9 4.67 -9 4.34 -9 4 C-6.03 3.34 -3.06 2.68 0 2 C0 1.34 0 0.68 0 0 Z " fill="#696969" transform="translate(225,201)"/>
<path d="M0 0 C0.99 0.33 1.98 0.66 3 1 C3 1.66 3 2.32 3 3 C1.02 3.66 -0.96 4.32 -3 5 C-3 4.01 -3 3.02 -3 2 C-2.01 1.34 -1.02 0.68 0 0 Z " fill="#3B3B3B" transform="translate(301,378)"/>
<path d="M0 0 C2.31 0 4.62 0 7 0 C7.66 1.65 8.32 3.3 9 5 C5.54074837 3.7508258 2.85306797 2.32472205 0 0 Z " fill="#585858" transform="translate(198,380)"/>
<path d="M0 0 C0.66 1.32 1.32 2.64 2 4 C0.625 5.5 0.625 5.5 -1 7 C-1.66 7 -2.32 7 -3 7 C-1.125 1.125 -1.125 1.125 0 0 Z " fill="#484848" transform="translate(255,258)"/>
</svg>
