<?xml version="1.0" encoding="UTF-8"?>
<!DOCTYPE svg PUBLIC "-//W3C//DTD SVG 1.1//EN" "http://www.w3.org/Graphics/SVG/1.1/DTD/svg11.dtd">
<svg xmlns="http://www.w3.org/2000/svg" version="1.1" width="744px" height="744px" style="shape-rendering:geometricPrecision; text-rendering:geometricPrecision; image-rendering:optimizeQuality; fill-rule:evenodd; clip-rule:evenodd" xmlns:xlink="http://www.w3.org/1999/xlink">
<g><path style="opacity:1" fill="#f9f9f9" d="M 344.5,-0.5 C 362.5,-0.5 380.5,-0.5 398.5,-0.5C 525.293,12.5613 622.793,72.5613 691,179.5C 720.883,230.645 738.383,285.645 743.5,344.5C 743.5,362.5 743.5,380.5 743.5,398.5C 730.439,525.293 670.439,622.793 563.5,691C 512.355,720.883 457.355,738.383 398.5,743.5C 380.5,743.5 362.5,743.5 344.5,743.5C 217.707,730.439 120.207,670.439 52,563.5C 22.1173,512.355 4.61728,457.355 -0.5,398.5C -0.5,380.5 -0.5,362.5 -0.5,344.5C 12.5613,217.707 72.5613,120.207 179.5,52C 230.645,22.1173 285.645,4.61728 344.5,-0.5 Z"/></g>
<g><path style="opacity:1" fill="#191919" d="M 568.5,208.5 C 569.5,323.332 569.833,438.332 569.5,553.5C 568.019,571.818 559.352,585.652 543.5,595C 485.5,627.333 427.5,659.667 369.5,692C 350.131,702.462 330.465,703.129 310.5,694C 251.167,660.667 191.833,627.333 132.5,594C 118.854,584.341 111.021,571.174 109,554.5C 108.817,499.822 108.317,445.155 107.5,390.5C 109.051,366.895 121.051,351.395 143.5,344C 157.282,341.822 170.115,344.322 182,351.5C 199.08,335.352 215.913,318.852 232.5,302C 221.532,284.626 220.699,266.792 230,248.5C 247.832,225.231 269.998,220.064 296.5,233C 298.812,235.375 301.479,236.708 304.5,237C 327.146,218.686 349.479,200.019 371.5,181C 360.903,160.442 362.403,140.942 376,122.5C 396.742,103.566 418.909,101.733 442.5,117C 461.025,134.673 464.859,155.173 454,178.5C 447.913,189.099 439.08,196.099 427.5,199.5C 426.171,223.337 426.171,247.337 427.5,271.5C 428.107,271.376 428.44,271.043 428.5,270.5C 456.074,225.027 483.407,179.36 510.5,133.5C 500.72,125.436 490.72,117.603 480.5,110C 510.824,98.3922 541.491,87.8922 572.5,78.5C 579.899,110.997 587.233,143.497 594.5,176C 582.254,171.383 570.254,165.883 558.5,159.5C 490.503,271.68 422.67,384.013 355,496.5C 350.871,505.595 344.371,512.428 335.5,517C 325.885,520.485 316.552,519.818 307.5,515C 266.341,485.92 225.008,457.087 183.5,428.5C 176.948,433.35 169.615,436.017 161.5,436.5C 161.167,474.173 161.5,511.839 162.5,549.5C 203.186,572.667 243.853,595.5 284.5,618C 255.745,577.157 226.745,536.491 197.5,496C 242.141,520.831 286.475,546.498 330.5,573C 339.757,575.558 347.257,573.058 353,565.5C 424.342,446.14 496.175,327.14 568.5,208.5 Z"/></g>
<g><path style="opacity:1" fill="#f6f6f6" d="M 406.5,133.5 C 425.26,132.76 434.093,141.76 433,160.5C 426.423,174.538 415.923,178.705 401.5,173C 388.698,162.996 387.365,151.663 397.5,139C 400.263,136.626 403.263,134.792 406.5,133.5 Z"/></g>
<g><path style="opacity:1" fill="#f9f9f9" d="M 391.5,198.5 C 394.402,199.578 397.402,200.244 400.5,200.5C 400.667,239.168 400.5,277.835 400,316.5C 369.994,368.527 338.994,419.86 307,470.5C 300.366,467.684 294.033,464.35 288,460.5C 287.167,412.83 287.333,365.163 288.5,317.5C 306.343,310.142 316.509,296.808 319,277.5C 319.452,271.385 319.119,265.385 318,259.5C 342.478,239.029 366.978,218.696 391.5,198.5 Z"/></g>
<g><path style="opacity:1" fill="#f6f6f6" d="M 264.5,252.5 C 283.822,251.323 292.989,260.323 292,279.5C 285.411,293.545 274.911,297.712 260.5,292C 251.918,285.646 248.751,277.146 251,266.5C 253.687,259.981 258.187,255.314 264.5,252.5 Z"/></g>
<g><path style="opacity:1" fill="#8b888a" d="M 427.5,199.5 C 427.169,223.339 427.502,247.006 428.5,270.5C 428.44,271.043 428.107,271.376 427.5,271.5C 426.171,247.337 426.171,223.337 427.5,199.5 Z"/></g>
<g><path style="opacity:1" fill="#f8f8f8" d="M 252.5,318.5 C 255.096,319.265 257.763,319.599 260.5,319.5C 260.667,362.168 260.5,404.835 260,447.5C 239.575,434.372 219.408,420.872 199.5,407C 201.953,401.649 202.953,395.983 202.5,390C 202.711,383.261 201.878,376.761 200,370.5C 217.422,352.911 234.922,335.577 252.5,318.5 Z"/></g>
<g><path style="opacity:1" fill="#333232" d="M 569.5,553.5 C 569.833,438.332 569.5,323.332 568.5,208.5C 568.783,207.711 569.283,207.044 570,206.5C 570.833,322.334 570.666,438.001 569.5,553.5 Z"/></g>
<g><path style="opacity:1" fill="#f6f6f6" d="M 152.5,369.5 C 172.427,370.933 179.594,381.267 174,400.5C 165.884,411.404 155.717,413.904 143.5,408C 133.384,398.728 131.884,388.228 139,376.5C 142.975,372.931 147.475,370.597 152.5,369.5 Z"/></g>
<g><path style="opacity:1" fill="#f8f8f8" d="M 516.5,410.5 C 517.831,456.335 517.831,502.335 516.5,548.5C 474.586,572.04 432.752,595.707 391,619.5C 432.481,549.8 474.314,480.133 516.5,410.5 Z"/></g>
</svg>
